<?xml version="1.0" encoding="UTF-8"?>
<svg width="20px" height="20px" viewBox="0 0 20 20" version="1.1" xmlns="http://www.w3.org/2000/svg" xmlns:xlink="http://www.w3.org/1999/xlink">
    <title>2FAFC43A-66F8-4808-BB1E-9DFAB1CD068A</title>
    <g id="01-web-landing" stroke="none" stroke-width="1" fill="none" fill-rule="evenodd" opacity="0.5">
        <g id="landing-page" transform="translate(-53.000000, -454.000000)" fill="#FFFFFF" fill-rule="nonzero">
            <g id="Group-6" transform="translate(32.500000, 454.800000)">
                <g id="film-reel" transform="translate(21.000000, 0.000000)">
                    <path d="M12.0512695,0 L4.49023438,0 L4.49023438,3.33984375 L13.3964844,3.33984375 C15.8724219,3.33984375 17.8867188,5.35414063 17.8867188,7.83007812 C17.8867188,9.87198438 16.4447969,11.6500059 14.4974453,12.1456758 C14.5053496,12.0069238 14.5097656,11.8672812 14.5097656,11.7265625 C14.5097656,7.7159668 11.2635488,4.453125 7.2734375,4.453125 C3.27312109,4.453125 0,7.7266543 0,11.7265625 C0,15.726916 3.27356641,19 7.2734375,19 C9.89966797,19 12.2034551,17.5863926 13.471668,15.4765762 C16.6747266,14.8067148 19,11.975418 19,8.71142578 C19,8.15137109 19,7.50878516 19,6.94873047 C19,3.12780078 15.8716426,0 12.0512695,0 Z M11.1699219,2.2265625 L8.94335938,2.2265625 L8.94335938,1.11328125 L11.1699219,1.11328125 L11.1699219,2.2265625 Z M5.60351562,1.11328125 L7.83007812,1.11328125 L7.83007812,2.2265625 L5.60351562,2.2265625 L5.60351562,1.11328125 Z M13.3964844,2.2265625 L12.2832031,2.2265625 L12.2832031,1.11840234 C13.9671152,1.18460547 15.4701562,1.96724219 16.4944863,3.16980859 C15.5810391,2.55613086 14.5119922,2.2265625 13.3964844,2.2265625 Z M7.2734375,17.8867188 C3.87670508,17.8867188 1.11328125,15.1232949 1.11328125,11.7265625 C1.11328125,8.32983008 3.87670508,5.56640625 7.2734375,5.56640625 C10.6496855,5.56640625 13.3964844,8.32983008 13.3964844,11.7265625 C13.3964844,15.1232949 10.6496855,17.8867188 7.2734375,17.8867188 Z M14.1011172,14.1360371 C14.1944102,13.8697031 14.2727852,13.5963926 14.3350176,13.3169961 C15.0935703,13.188375 15.8141602,12.9057871 16.4548906,12.4884922 C15.8251074,13.2135723 15.0189063,13.787877 14.1011172,14.1360371 L14.1011172,14.1360371 Z" id="Shape"></path>
                    <path d="M7.2734375,10.0566406 C8.19423242,10.0566406 8.94335938,9.30751367 8.94335938,8.38671875 C8.94335938,7.46592383 8.19423242,6.71679688 7.2734375,6.71679688 C6.35264258,6.71679688 5.60351562,7.46592383 5.60351562,8.38671875 C5.60351562,9.30751367 6.35264258,10.0566406 7.2734375,10.0566406 Z M7.2734375,7.83007812 C7.58036914,7.83007812 7.83007812,8.07978711 7.83007812,8.38671875 C7.83007812,8.69365039 7.58036914,8.94335938 7.2734375,8.94335938 C6.96650586,8.94335938 6.71679688,8.69365039 6.71679688,8.38671875 C6.71679688,8.07978711 6.96650586,7.83007812 7.2734375,7.83007812 Z" id="Shape"></path>
                    <path d="M7.2734375,13.3964844 C6.35264258,13.3964844 5.60351562,14.1456113 5.60351562,15.0664062 C5.60351562,15.9872012 6.35264258,16.7363281 7.2734375,16.7363281 C8.19423242,16.7363281 8.94335938,15.9872012 8.94335938,15.0664062 C8.94335938,14.1456113 8.19423242,13.3964844 7.2734375,13.3964844 Z M7.2734375,15.6230469 C6.96650586,15.6230469 6.71679688,15.3733379 6.71679688,15.0664062 C6.71679688,14.7594746 6.96650586,14.5097656 7.2734375,14.5097656 C7.58036914,14.5097656 7.83007812,14.7594746 7.83007812,15.0664062 C7.83007812,15.3733379 7.58036914,15.6230469 7.2734375,15.6230469 Z" id="Shape"></path>
                    <path d="M3.93359375,10.0566406 C3.01279883,10.0566406 2.26367188,10.8057676 2.26367188,11.7265625 C2.26367188,12.6473574 3.01279883,13.3964844 3.93359375,13.3964844 C4.85438867,13.3964844 5.60351562,12.6473574 5.60351562,11.7265625 C5.60351562,10.8057676 4.85438867,10.0566406 3.93359375,10.0566406 Z M3.93359375,12.2832031 C3.62666211,12.2832031 3.37695312,12.0334941 3.37695312,11.7265625 C3.37695312,11.4196309 3.62666211,11.1699219 3.93359375,11.1699219 C4.24052539,11.1699219 4.49023438,11.4196309 4.49023438,11.7265625 C4.49023438,12.0334941 4.24052539,12.2832031 3.93359375,12.2832031 Z" id="Shape"></path>
                    <path d="M10.6132812,10.0566406 C9.69248633,10.0566406 8.94335938,10.8057676 8.94335938,11.7265625 C8.94335938,12.6473574 9.69248633,13.3964844 10.6132812,13.3964844 C11.5340762,13.3964844 12.2832031,12.6473574 12.2832031,11.7265625 C12.2832031,10.8057676 11.5340762,10.0566406 10.6132812,10.0566406 Z M10.6132812,12.2832031 C10.3063496,12.2832031 10.0566406,12.0334941 10.0566406,11.7265625 C10.0566406,11.4196309 10.3063496,11.1699219 10.6132812,11.1699219 C10.9202129,11.1699219 11.1699219,11.4196309 11.1699219,11.7265625 C11.1699219,12.0334941 10.9202129,12.2832031 10.6132812,12.2832031 Z" id="Shape"></path>
                    <polygon id="Path" points="6.71679688 11.1699219 7.83007812 11.1699219 7.83007812 12.2832031 6.71679688 12.2832031"></polygon>
                </g>
            </g>
        </g>
    </g>
</svg>