<?xml version="1.0" encoding="UTF-8"?>
<svg width="20px" height="20px" viewBox="0 0 20 20" version="1.1" xmlns="http://www.w3.org/2000/svg" xmlns:xlink="http://www.w3.org/1999/xlink">
    <title>4F7CB3A6-B7A8-4732-8CE8-A4219C935E91</title>
    <g id="01-web-landing" stroke="none" stroke-width="1" fill="none" fill-rule="evenodd" opacity="0.5">
        <g id="landing-page" transform="translate(-53.000000, -686.000000)" fill="#FFFFFF" fill-rule="nonzero">
            <g id="Group-10" transform="translate(36.500000, 686.600000)">
                <g id="add" transform="translate(17.000000, 0.000000)">
                    <path d="M18.0358515,8.54332553 L10.4419003,8.54332553 L10.4419003,0.949200443 C10.4419003,0.425323855 10.0165764,0 9.49252597,0 C8.96864938,0 8.54332553,0.425323855 8.54332553,0.949200443 L8.54332553,8.54332553 L0.949200443,8.54332553 C0.425323855,8.54332553 -1.26466623e-15,8.96864938 -1.26466623e-15,9.49252597 C-1.26466623e-15,10.0165764 0.425323855,10.4419003 0.949200443,10.4419003 L8.54332553,10.4419003 L8.54332553,18.0358515 C8.54332553,18.5599019 8.96864938,18.9852258 9.49252597,18.9852258 C10.0165764,18.9852258 10.4419003,18.5599019 10.4419003,18.0358515 L10.4419003,10.4419003 L18.0358515,10.4419003 C18.5599019,10.4419003 18.9852258,10.0165764 18.9852258,9.49252597 C18.9852258,8.96864938 18.5599019,8.54332553 18.0358515,8.54332553 Z" id="Path"></path>
                </g>
            </g>
        </g>
    </g>
</svg>