<?xml version="1.0" encoding="UTF-8"?>
<svg width="20px" height="20px" viewBox="0 0 20 20" version="1.1" xmlns="http://www.w3.org/2000/svg" xmlns:xlink="http://www.w3.org/1999/xlink">
    <title>310873AC-8EB5-4523-822F-DB49E7E13291</title>
    <g id="01-web-landing" stroke="none" stroke-width="1" fill="none" fill-rule="evenodd" opacity="0.5">
        <g id="landing-page" transform="translate(-53.000000, -802.000000)" fill="#FFFFFF" fill-rule="nonzero">
            <g id="Group-11" transform="translate(9.000000, 802.500000)">
                <path d="M63.3509084,13.3254668 C63.3334384,13.2141891 63.3066984,13.1045356 63.2710056,12.9976552 C62.9294873,12.047259 61.9556789,11.4785901 60.960122,11.6481806 C60.630805,11.7000362 60.3217708,11.4751436 60.2698359,11.1458267 L59.7688685,7.94048285 C59.3577076,5.22850045 57.3985232,3.00758181 54.7590357,2.26132019 C54.5189707,0.79209038 53.1333279,-0.204377656 51.6640585,0.0356873955 C50.2142398,0.272583271 49.2210598,1.62673239 49.4307404,3.08075015 C47.1555893,4.52058585 45.9546302,7.17552309 46.3754967,9.83489718 L46.9123154,13.2464355 C46.9614772,13.5751186 46.7378127,13.8824098 46.4100011,13.9367215 C45.4103639,14.0809586 44.6580016,14.9211071 44.6243375,15.9305291 C44.6128804,17.0506346 45.5115398,17.9680713 46.6316453,17.9796388 C46.6386571,17.9797181 46.6457085,17.9797577 46.6527203,17.9797577 C46.7584519,17.9796785 46.8639855,17.9715574 46.9684494,17.9554343 L49.049449,17.6282169 C49.7733679,18.9205275 51.4078306,19.3813256 52.7001412,18.6574067 C53.382742,18.2750456 53.8643378,17.6136783 54.0187163,16.8466586 L61.6619359,15.6438772 C62.7685328,15.4700875 63.5247377,14.4321033 63.3509084,13.3254668 Z M51.8991717,1.43856259 C51.9696462,1.42758932 52.0408338,1.42192442 52.1121403,1.42164711 C52.565372,1.42406361 52.9875458,1.65228387 53.2378314,2.03012883 L53.205387,2.03012883 C52.9532395,2.0225228 52.7008146,2.02977229 52.449499,2.05175845 C52.1848332,2.07703262 51.9218313,2.1176773 51.66184,2.17345479 C51.605706,2.18494305 51.550285,2.20118508 51.4948245,2.21469369 C51.2818559,2.26472705 51.072928,2.32355487 50.8680804,2.39319751 C50.8477977,2.39929817 50.8268415,2.40266542 50.8065588,2.41011298 C50.9492113,1.90031147 51.3762181,1.52060462 51.8991717,1.43856259 Z M51.3853295,17.6478278 C51.0987964,17.6481431 50.8197505,17.5561577 50.5895891,17.3854976 L52.4826565,17.0887043 C52.2278944,17.4404828 51.819665,17.6484996 51.3853295,17.6478278 Z M61.9235514,13.9922217 C61.8200382,14.1622084 61.646922,14.2779625 61.4502746,14.3086243 L53.3068006,15.5891297 L49.3496491,16.2117935 L46.7602346,16.6174479 C46.5640626,16.6494566 46.36385,16.5924907 46.213948,16.4619603 C46.060956,16.3315091 45.9740017,16.1396947 45.9765969,15.9386501 C46.0059312,15.5919027 46.2747961,15.313451 46.6202759,15.2720141 C47.6851189,15.1013143 48.412207,14.1026675 48.2476079,13.0368737 L47.7114627,9.62533544 C47.360318,7.37466616 48.4531686,5.14447768 50.4469366,4.04287225 C50.4586625,4.03895039 50.4701508,4.03443432 50.4814014,4.02936363 C51.1284678,3.67877358 51.8402646,3.46386386 52.5732157,3.3979054 C52.7953353,3.37837535 53.0184849,3.37409697 53.2411987,3.38507024 L53.3520802,3.39049745 C53.5824793,3.40444182 53.8116899,3.43332094 54.0383256,3.47705556 C54.0457731,3.47705556 54.0525076,3.47705556 54.0599552,3.47705556 C56.3476246,3.97196194 58.0888093,5.833298 58.4302087,8.14885615 L58.934583,11.3542 C59.1022324,12.4210633 60.1028204,13.1501718 61.1697233,12.9829185 C61.5107266,12.9163262 61.8516507,13.0980784 61.9864595,13.4183236 C62.0523387,13.6093061 62.029283,13.8198978 61.9235514,13.9922217 Z" id="Shape"></path>
            </g>
        </g>
    </g>
</svg>