<?xml version="1.0" encoding="UTF-8"?>
<svg width="20px" height="19px" viewBox="0 0 20 19" version="1.1" xmlns="http://www.w3.org/2000/svg" xmlns:xlink="http://www.w3.org/1999/xlink">
    <title>D53E74E8-233B-4239-8366-EB0554ADF502</title>
    <g id="01-web-landing" stroke="none" stroke-width="1" fill="none" fill-rule="evenodd" opacity="0.5">
        <g id="landing-page" transform="translate(-53.000000, -226.000000)" fill="#FFFFFF">
            <g id="Group-2" transform="translate(34.000000, 226.000000)">
                <g id="Group" transform="translate(19.500000, 0.000000)">
                    <path d="M7.21814737,2.32522105 C4.52071579,2.32522105 2.32576842,4.51962105 2.32576842,7.2176 C2.32576842,9.91503158 4.52071579,12.1099789 7.21814737,12.1099789 C9.91557895,12.1099789 12.1105263,9.91503158 12.1105263,7.2176 C12.1105263,4.51962105 9.91557895,2.32522105 7.21814737,2.32522105 Z M7.21814737,14.4357474 C3.23823158,14.4357474 1.50990331e-14,11.1975158 1.50990331e-14,7.2176 C1.50990331e-14,3.23768421 3.23823158,0 7.21814737,0 C11.1980632,0 14.4357474,3.23768421 14.4357474,7.2176 C14.4357474,11.1975158 11.1980632,14.4357474 7.21814737,14.4357474 L7.21814737,14.4357474 Z" id="Fill-173"></path>
                    <path d="M17.0538105,18.2158737 C16.7560421,18.2158737 16.4582737,18.1025684 16.2316632,17.8754105 L10.6775158,12.3212632 C10.2237474,11.8669474 10.2237474,11.1312842 10.6780632,10.6769684 C11.1318316,10.2226526 11.8674947,10.2226526 12.3223579,10.6769684 L17.8759579,16.2311158 C18.3302737,16.6854316 18.3302737,17.4216421 17.8759579,17.8754105 C17.6488,18.1025684 17.3510316,18.2158737 17.0538105,18.2158737" id="Fill-174"></path>
                </g>
            </g>
        </g>
    </g>
</svg>