<?xml version="1.0" encoding="UTF-8"?>
<svg width="20px" height="21px" viewBox="0 0 20 21" version="1.1" xmlns="http://www.w3.org/2000/svg" xmlns:xlink="http://www.w3.org/1999/xlink">
    <title>7AE1AC89-D9F9-4A75-A146-F11CAB21383E</title>
    <g id="01-web-landing" stroke="none" stroke-width="1" fill="none" fill-rule="evenodd" opacity="0.5">
        <g id="landing-page" transform="translate(-53.000000, -570.000000)" fill="#FFFFFF" fill-rule="nonzero">
            <g id="Group-7" transform="translate(21.000000, 570.700000)">
                <g id="tv" transform="translate(32.000000, 0.000000)">
                    <path d="M17.7860981,4.57030357 L11.1291843,4.57030357 L14.7242613,0.975226611 C14.9473683,0.752119625 14.9473683,0.390418183 14.7242613,0.167311197 C14.5011924,-0.0557957895 14.1394529,-0.0557957895 13.9163459,0.167311197 L9.74998096,4.33367611 L5.58365413,0.167349283 C5.36058523,-0.0557577036 4.99884571,-0.0557577036 4.77573872,0.167349283 C4.55263173,0.390456269 4.55263173,0.752157711 4.77573872,0.975264697 L8.3707776,4.57030357 L1.71386384,4.57030357 C0.768839319,4.57030357 -3.90798505e-14,5.33914289 -3.90798505e-14,6.28416741 L-3.90798505e-14,17.7860981 C-3.90798505e-14,18.7311226 0.768839319,19.4999619 1.71386384,19.4999619 L17.7860981,19.4999619 C18.7311226,19.4999619 19.4999619,18.7311226 19.4999619,17.7860981 L19.4999619,6.28416741 C19.4999619,5.33914289 18.7311226,4.57030357 17.7860981,4.57030357 Z M18.357386,17.7860981 C18.357386,18.1011062 18.1011062,18.357386 17.7860981,18.357386 L1.71386384,18.357386 C1.39885567,18.357386 1.14257589,18.1011062 1.14257589,17.7860981 L1.14257589,6.28416741 C1.14257589,5.96915924 1.39885567,5.71287947 1.71386384,5.71287947 L17.7860981,5.71287947 C18.1011062,5.71287947 18.357386,5.96915924 18.357386,6.28416741 L18.357386,17.7860981 Z" id="Shape"></path>
                    <path d="M16.6435222,6.85545536 L2.85643973,6.85545536 C2.54093644,6.85545536 2.28515179,7.11124002 2.28515179,7.42674331 L2.28515179,16.6435222 C2.28515179,16.9590255 2.54093644,17.2148101 2.85643973,17.2148101 L16.6435222,17.2148101 C16.9590255,17.2148101 17.2148101,16.9590255 17.2148101,16.6435222 L17.2148101,7.42674331 C17.2148101,7.11124002 16.9590255,6.85545536 16.6435222,6.85545536 Z M16.0722342,16.0722342 L3.42772768,16.0722342 L3.42772768,7.99803125 L16.0722342,7.99803125 L16.0722342,16.0722342 Z" id="Shape"></path>
                    <path d="M8.33783332,14.8239701 C8.42230777,14.869178 8.51493259,14.8915725 8.60736698,14.8915725 C8.71819684,14.8915725 8.82872201,14.8593518 8.92427944,14.7956342 L12.3520071,12.5104824 C12.5109394,12.4045275 12.6064207,12.2261333 12.6064207,12.0351327 C12.6064207,11.8441321 12.5109775,11.665738 12.3520071,11.5597831 L8.92427944,9.2746313 C8.74897022,9.15778387 8.52361616,9.14685323 8.33783332,9.24629542 C8.15208857,9.34569952 8.03611712,9.53932805 8.03611712,9.74998096 L8.03611712,14.3202845 C8.03611712,14.5309755 8.15208857,14.724566 8.33783332,14.8239701 Z M9.17869301,10.8174515 L11.0052529,12.0351327 L9.17869301,13.252814 L9.17869301,10.8174515 Z" id="Shape"></path>
                </g>
            </g>
        </g>
    </g>
</svg>